<?xml version="1.0" encoding="utf-8"?>
<!-- Generator: Adobe Illustrator 24.3.0, SVG Export Plug-In . SVG Version: 6.00 Build 0)  -->
<svg version="1.1" id="Layer_1" xmlns="http://www.w3.org/2000/svg" xmlns:xlink="http://www.w3.org/1999/xlink" x="0px" y="0px"
	 viewBox="0 0 512 512" style="enable-background:new 0 0 512 512;" xml:space="preserve">
<style type="text/css">
	.st0{fill:#FFFFFF;}
</style>
<path class="st0" d="M256,512c-68.4,0-132.7-26.6-181-75S0,324.4,0,256S26.6,123.3,75,75S187.6,0,256,0s132.7,26.6,181,75
	s75,112.6,75,181s-26.6,132.7-75,181S324.4,512,256,512z M256,40C136.9,40,40,136.9,40,256s96.9,216,216,216s216-96.9,216-216
	S375.1,40,256,40z M360.3,256L222,117.7L193.7,146l110,110l-110,110l28.3,28.3L360.3,256z"/>
</svg>
