<?xml version="1.0" encoding="utf-8"?>
<!-- Generator: Adobe Illustrator 24.3.0, SVG Export Plug-In . SVG Version: 6.00 Build 0)  -->
<svg version="1.1" id="Capa_1" xmlns="http://www.w3.org/2000/svg" xmlns:xlink="http://www.w3.org/1999/xlink" x="0px" y="0px"
	 viewBox="0 0 373.6 373.6" style="enable-background:new 0 0 373.6 373.6;" xml:space="preserve">
<style type="text/css">
	.st0{fill:#FFFFFF;}
</style>
<g>
	<g>
		<path class="st0" d="M314.3,64.6H58.8c-14.5-0.7-28.7,4-40,13.1L33.3,87l109.9,71.2c1.1,0.4,2.1,1,2.9,1.8l40,26l153.7-98.9
			l14.6-9.4C342.9,68.8,328.8,64.2,314.3,64.6z"/>
	</g>
</g>
<g>
	<g>
		<path class="st0" d="M22.2,98.8L8.7,90C3,100.1,0,111.5,0.1,123.1L0,250.2c-0.2,13.6,3.9,26.8,11.8,37.8l11.4-11.8l104.7-108.8
			L22.2,98.8z"/>
	</g>
</g>
<g>
	<g>
		<path class="st0" d="M338.8,287.1L232,176.4l-40.8,26.4l-1.4,0.6h-0.6c-0.7,0.1-1.3,0.1-2,0c-0.7,0.1-1.3,0.1-2,0h-0.6l-1.9-0.6
			l-40.5-26.2L34.8,287.4l-11.5,11.9c10.6,6.8,23,10.2,35.5,9.7h256c12.5,0.1,24.8-3.5,35.3-10.2L338.8,287.1z"/>
	</g>
</g>
<g>
	<g>
		<path class="st0" d="M373.5,250.2V123.4c0.4-11.7-2.6-23.2-8.4-33.3l-13.6,8.7l-105.6,68.4l104.6,108.9L362,288
			C370,277.1,374.1,263.8,373.5,250.2z"/>
	</g>
</g>
</svg>
