<?xml version="1.0" encoding="utf-8"?>
<!-- Generator: Adobe Illustrator 24.3.0, SVG Export Plug-In . SVG Version: 6.00 Build 0)  -->
<svg version="1.1" id="Layer_1" xmlns="http://www.w3.org/2000/svg" xmlns:xlink="http://www.w3.org/1999/xlink" x="0px" y="0px"
	 viewBox="0 0 512 512" style="enable-background:new 0 0 512 512;" xml:space="preserve">
<style type="text/css">
	.st0{fill:#FFFFFF;}
</style>
<g>
	<g>
		<g>
			<path class="st0" d="M345,114.4V57.2c0-6-4.9-10.9-10.9-10.9H67.2c-6,0-10.9,4.9-10.9,10.9v57.2c0,6,4.9,10.9,10.9,10.9h266.9
				C340.1,125.3,345,120.4,345,114.4z M323.2,103.5H78.1V68.1h245.1V103.5L323.2,103.5z"/>
			<path class="st0" d="M490.9,113.4l-21.2-21.2c-10.5-10.5-30.9-13.7-42.4-2.3l-38.8,38.8V10.9c0-6-4.9-10.9-10.9-10.9h-354
				c-6,0-10.9,4.9-10.9,10.9v490.2c0,6,4.9,10.9,10.9,10.9h354c6,0,10.9-4.9,10.9-10.9V255.9l102.4-102.4
				C502,142.4,502,124.5,490.9,113.4z M34.6,490.2V21.8h332.3v128.8L194.2,323.1c-0.1,0.1-0.1,0.1-0.2,0.2c-1,1.1-1.8,2.3-2.4,3.8
				L164.5,402c-1.4,4-0.5,8.4,2.5,11.4c2.1,2.1,4.9,3.2,7.7,3.2c1.2,0,2.5-0.2,3.7-0.6l75.3-26.8c1.5-0.5,2.8-1.4,4-2.5
				c0,0,0.1,0,0.1-0.1l109-109v212.6H34.6L34.6,490.2z M206.3,350.7l23.8,23.8l-37.3,13.3L206.3,350.7z M250.1,363.6l-32.7-32.7
				l196.4-196.4l32.7,32.7L250.1,363.6z M475.5,138.1l-13.6,13.6L429.2,119l13.6-13.6c1.8-1.8,8.4-0.9,11.6,2.3l21.2,21.2
				C478.1,131.4,478.1,135.5,475.5,138.1z"/>
			<path class="st0" d="M319.8,437.1H81.5c-6,0-10.9,4.9-10.9,10.9s4.9,10.9,10.9,10.9h238.3c6,0,10.9-4.9,10.9-10.9
				S325.8,437.1,319.8,437.1z"/>
			<path class="st0" d="M259.2,198.8H81.5c-6,0-10.9,4.9-10.9,10.9s4.9,10.9,10.9,10.9h177.7c6,0,10.9-4.9,10.9-10.9
				S265.2,198.8,259.2,198.8z"/>
			<path class="st0" d="M304.2,151.1H200.7c-6,0-10.9,4.9-10.9,10.9s4.9,10.9,10.9,10.9h103.5c6,0,10.9-4.9,10.9-10.9
				S310.2,151.1,304.2,151.1z"/>
			<path class="st0" d="M154.4,172.9c6,0,10.9-4.9,10.9-10.9s-4.9-10.9-10.9-10.9H81.5c-6,0-10.9,4.9-10.9,10.9s4.9,10.9,10.9,10.9
				H154.4z"/>
			<path class="st0" d="M212.9,246.5H81.5c-6,0-10.9,4.9-10.9,10.9s4.9,10.9,10.9,10.9h131.4c6,0,10.9-4.9,10.9-10.9
				C223.8,251.3,218.9,246.5,212.9,246.5z"/>
			<path class="st0" d="M172.1,294.1H81.5c-6,0-10.9,4.9-10.9,10.9s4.9,10.9,10.9,10.9h90.6c6,0,10.9-4.9,10.9-10.9
				S178.1,294.1,172.1,294.1z"/>
			<path class="st0" d="M158.5,352.7c0-6-4.9-10.9-10.9-10.9h-66c-6,0-10.9,4.9-10.9,10.9s4.9,10.9,10.9,10.9h66
				C153.6,363.6,158.5,358.7,158.5,352.7z"/>
			<path class="st0" d="M81.5,389.4c-6,0-10.9,4.9-10.9,10.9s4.9,10.9,10.9,10.9h44.9c6,0,10.9-4.9,10.9-10.9s-4.9-10.9-10.9-10.9
				H81.5z"/>
		</g>
	</g>
</g>
</svg>
