<?xml version="1.0" encoding="utf-8"?>
<!-- Generator: Adobe Illustrator 24.3.0, SVG Export Plug-In . SVG Version: 6.00 Build 0)  -->
<svg version="1.1" id="Capa_1" xmlns="http://www.w3.org/2000/svg" xmlns:xlink="http://www.w3.org/1999/xlink" x="0px" y="0px"
	 viewBox="0 0 512 512" style="enable-background:new 0 0 512 512;" xml:space="preserve">
<style type="text/css">
	.st0{fill:#FFFFFF;}
</style>
<g>
	<g>
		<path class="st0" d="M256,0C114.8,0,0,114.8,0,256s114.8,256,256,256s256-114.8,256-256S397.2,0,256,0z M256,471.5
			c-118.8,0-215.5-96.7-215.5-215.5S137.2,40.5,256,40.5c118.8,0,215.5,96.7,215.5,215.5S374.8,471.5,256,471.5z"/>
	</g>
</g>
<g>
	<g>
		<path class="st0" d="M256,301.4c-72,0-139.4,36.1-189.7,101.6l32.2,24.7C140.9,372.4,196.9,342,256,342s115.1,30.5,157.5,85.8
			l32.2-24.7C395.4,337.5,328,301.4,256,301.4z"/>
	</g>
</g>
<g>
	<g>
		<path class="st0" d="M256,91.9c-58.1,0-105.4,47.6-105.4,106S197.9,304,256,304s105.4-47.6,105.4-106S314.1,91.9,256,91.9z
			 M256,263.4c-35.8,0-64.8-29.4-64.8-65.5s29.1-65.5,64.8-65.5s64.8,29.4,64.8,65.5S291.8,263.4,256,263.4z"/>
	</g>
</g>
</svg>
