<?xml version="1.0" encoding="utf-8"?>
<!-- Generator: Adobe Illustrator 24.3.0, SVG Export Plug-In . SVG Version: 6.00 Build 0)  -->
<svg version="1.1" id="Capa_1" xmlns="http://www.w3.org/2000/svg" xmlns:xlink="http://www.w3.org/1999/xlink" x="0px" y="0px"
	 viewBox="0 0 18.5 18.5" style="enable-background:new 0 0 18.5 18.5;" xml:space="preserve">
<style type="text/css">
	.st0{fill:#FFFFFF;}
</style>
<g>
	<g>
		<rect x="2.7" y="4.1" class="st0" width="8.2" height="1.3"/>
		<path class="st0" d="M15,14.1c0.6-1.1,0.5-2.6-0.5-3.5c-0.5-0.5-1.3-0.9-2.1-0.9s-1.5,0.3-2.1,0.9s-0.9,1.3-0.9,2.1
			c0,0.8,0.3,1.5,0.9,2.1c0.5,0.5,1.3,0.9,2.1,0.9c0.5,0,1-0.1,1.4-0.4l3.3,3.3l1.1-1.1L15,14.1z M13.7,13.9c-0.7,0.7-1.8,0.7-2.4,0
			c-0.7-0.7-0.7-1.8,0-2.4c0.3-0.3,0.8-0.5,1.2-0.5s0.9,0.2,1.2,0.5s0.5,0.8,0.5,1.2S14,13.6,13.7,13.9z"/>
		<path class="st0" d="M13.3,16.3H1.9c-0.2,0-0.3-0.1-0.3-0.3V1.6c0-0.2,0.1-0.3,0.3-0.3h11.5c0.2,0,0.3,0.1,0.3,0.3v7.3
			c0.5,0.1,0.9,0.3,1.3,0.6V1.6C15,0.7,14.2,0,13.3,0H1.9C1,0,0.2,0.7,0.2,1.6V16c0,0.9,0.7,1.6,1.6,1.6h11.5c0.7,0,1-0.2,1.3-0.8
			L14,16.3C13.8,16.3,13.4,16.3,13.3,16.3z"/>
		<rect x="2.7" y="7.8" class="st0" width="8.2" height="1.3"/>
	</g>
</g>
</svg>
